<svg width="64" height="64" viewBox="0 0 64 64" fill="none" xmlns="http://www.w3.org/2000/svg">
<path d="M5.74527e-05 38.3214L5.7729e-05 32C5.78987e-05 28.119 1.95839 25.4286 5.87506 23.9286C7.23617 23.381 8.65284 23.1071 10.1251 23.1071L10.3334 23.1071C11.1667 21.631 12.3959 20.4583 14.0209 19.5893C15.6459 18.7202 17.4167 18.2857 19.3334 18.2857C20.3889 18.2857 21.0556 18.3452 21.3334 18.4643L21.3334 9.14286C21.3334 6.61905 22.3751 4.46428 24.4584 2.67857C26.5417 0.892856 29.0556 -1.52747e-06 32.0001 -1.39876e-06C34.9445 -1.27006e-06 37.4584 0.892856 39.5417 2.67857C41.6251 4.46428 42.6667 6.61905 42.6667 9.14286L42.6667 13.1786L43.3751 11.6071C44.1528 9.84524 45.4514 8.42262 47.2709 7.33929C49.0903 6.25595 51.1112 5.71429 53.3334 5.71429C56.2778 5.71429 58.7917 6.60714 60.8751 8.39286C62.9584 10.1786 64.0001 12.3333 64.0001 14.8571C64.0001 15.9524 63.7639 17.0357 63.2917 18.1071L53.3334 40.5357L53.3334 54.8571C53.3334 57.381 52.2917 59.5357 50.2084 61.3214C48.1251 63.1071 45.6112 64 42.6667 64L14.8334 64C12.3889 64 10.2014 63.3571 8.27089 62.0714C6.34033 60.7857 5.08339 59.119 4.50006 57.0714L0.958391 44.9643C0.319502 42.7738 5.73549e-05 40.5595 5.74527e-05 38.3214ZM29.6251 36.5714L26.6667 31.0357L23.5834 25.2143C23.1945 24.5 22.6181 23.9286 21.8542 23.5C21.0903 23.0714 20.2501 22.8571 19.3334 22.8571C18.0556 22.8571 16.9584 23.25 16.0417 24.0357C15.1251 24.8214 14.6667 25.7619 14.6667 26.8571C14.6667 27.4762 14.8056 28.0238 15.0834 28.5L21.5001 40.5714C21.7778 39.4048 22.4723 38.4464 23.5834 37.6964C24.6945 36.9464 25.9445 36.5714 27.3334 36.5714L29.6251 36.5714ZM16.6667 48C17.9445 48 19.0417 47.6071 19.9584 46.8214C20.8751 46.0357 21.3334 45.0952 21.3334 44C21.3334 43.381 21.1945 42.8333 20.9167 42.3571L15.4167 32C15.0556 31.3333 14.8195 30.8929 14.7084 30.6786C14.5973 30.4643 14.3612 30.1012 14.0001 29.5893C13.6389 29.0774 13.3126 28.7262 13.0209 28.5357C12.7292 28.3452 12.3264 28.1548 11.8126 27.9643C11.2987 27.7738 10.7362 27.6786 10.1251 27.6786C8.73617 27.6786 7.59728 28.0536 6.70839 28.8036C5.8195 29.5536 5.37506 30.5238 5.37506 31.7143C5.37506 32.1905 5.50006 32.6429 5.75006 33.0714L12.4167 45.6429C12.8056 46.3571 13.382 46.9286 14.1459 47.3571C14.9098 47.7857 15.7501 48 16.6667 48ZM48.0001 39.7143L58.3334 16.5C58.5556 15.9286 58.6667 15.381 58.6667 14.8571C58.6667 13.5952 58.1459 12.5179 57.1042 11.625C56.0626 10.7321 54.8056 10.2857 53.3334 10.2857C52.2223 10.2857 51.2084 10.5536 50.2917 11.0893C49.3751 11.625 48.7223 12.3333 48.3334 13.2143L40.0001 32L37.3334 32L37.3334 9.14286C37.3334 7.88095 36.8126 6.80357 35.7709 5.91071C34.7292 5.01786 33.4723 4.57143 32.0001 4.57143C30.5278 4.57143 29.2709 5.01786 28.2292 5.91071C27.1876 6.80357 26.6667 7.88095 26.6667 9.14286L26.6667 28.25L31.0834 36.5714L39.3334 36.5714C41.0834 36.5714 42.5556 37.119 43.7501 38.2143L48.0001 42.1786L48.0001 39.7143ZM5.33339 38.3214C5.33339 40.2738 5.59728 42.119 6.12506 43.8571L9.66672 55.9643C9.97228 56.9881 10.6042 57.8214 11.5626 58.4643C12.5209 59.1071 13.6112 59.4286 14.8334 59.4286L42.6667 59.4286C44.1389 59.4286 45.3959 58.9821 46.4376 58.0893C47.4792 57.1964 48.0001 56.119 48.0001 54.8571L48.0001 43.8571L42.7501 39C41.8334 38.1429 40.6945 37.7143 39.3334 37.7143L27.0001 37.7143C25.7223 37.7143 24.6528 38.1071 23.7917 38.8929C22.9306 39.6786 22.5001 40.619 22.5001 41.7143C22.5001 42.8095 22.9862 43.75 23.9584 44.5357C24.9306 45.3214 26.0556 45.7143 27.3334 45.7143L36.0001 45.7143L36.0001 46.8571L27.3334 46.8571C25.3889 46.8571 23.8056 46.1786 22.5834 44.8214C22.3612 46.0595 21.6876 47.0893 20.5626 47.9107C19.4376 48.7321 18.1389 49.1429 16.6667 49.1429C15.5001 49.1429 14.4167 48.869 13.4167 48.3214C12.4167 47.7738 11.6806 47.0476 11.2084 46.1429L5.33339 35.0714L5.33339 38.3214Z" fill="url(#paint0_linear_10_7)"/>
<defs>
<linearGradient id="paint0_linear_10_7" x1="64.0001" y1="32" x2="5.96364e-05" y2="32" gradientUnits="userSpaceOnUse">
<stop stop-color="#EDB581"/>
<stop offset="1" stop-color="#5B92E6"/>
</linearGradient>
</defs>
</svg>
