<svg width="92" height="100" viewBox="0 0 92 100" fill="none" xmlns="http://www.w3.org/2000/svg">
<path d="M49.1071 7.14286C47.3958 7.14286 45.9263 7.7567 44.6987 8.98437C43.471 10.2121 42.8571 11.6815 42.8571 13.3929V50H41.0714V20.5357C41.0714 18.8244 40.4576 17.3549 39.2299 16.1272C38.0022 14.8996 36.5327 14.2857 34.8214 14.2857C33.1101 14.2857 31.6406 14.8996 30.4129 16.1272C29.1853 17.3549 28.5714 18.8244 28.5714 20.5357V64.2857L19.9777 52.846C18.564 50.9487 16.6667 50 14.2857 50C12.314 50 10.6306 50.6975 9.23549 52.0926C7.8404 53.4877 7.14286 55.1711 7.14286 57.1429C7.14286 58.7426 7.62649 60.1749 8.59375 61.4397L30.0223 90.0112C31.436 91.9085 33.3333 92.8571 35.7143 92.8571H74.1071C75.372 92.8571 76.5067 92.4479 77.5112 91.6295C78.5156 90.811 79.1481 89.7693 79.4085 88.5045L83.6496 65.904C83.8356 64.7135 83.9286 63.6161 83.9286 62.6116V34.8214C83.9286 33.1101 83.3147 31.6406 82.0871 30.4129C80.8594 29.1853 79.3899 28.5714 77.6786 28.5714C75.9673 28.5714 74.4978 29.1853 73.2701 30.4129C72.0424 31.6406 71.4286 33.1101 71.4286 34.8214V50H69.6429V20.5357C69.6429 18.8244 69.029 17.3549 67.8013 16.1272C66.5737 14.8996 65.1042 14.2857 63.3929 14.2857C61.6815 14.2857 60.2121 14.8996 58.9844 16.1272C57.7567 17.3549 57.1429 18.8244 57.1429 20.5357V50H55.3571V13.3929C55.3571 11.6815 54.7433 10.2121 53.5156 8.98437C52.2879 7.7567 50.8185 7.14286 49.1071 7.14286ZM49.1071 0C51.6369 0 53.9714 0.660342 56.1105 1.98103C58.2496 3.30171 59.8958 5.09673 61.0491 7.36607C61.756 7.21726 62.5372 7.14286 63.3929 7.14286C67.0759 7.14286 70.2288 8.45424 72.8516 11.077C75.4743 13.6998 76.7857 16.8527 76.7857 20.5357V21.4844C80.692 21.2612 84.0495 22.4516 86.8583 25.0558C89.667 27.66 91.0714 30.9152 91.0714 34.8214V62.6116C91.0714 64.0997 90.9226 65.6436 90.625 67.2433L86.3839 89.7879C85.8631 92.7269 84.4401 95.1637 82.115 97.0982C79.7898 99.0327 77.1205 100 74.1071 100H35.7143C33.4821 100 31.3523 99.4885 29.3248 98.4654C27.2972 97.4423 25.6138 96.0565 24.2746 94.308L2.84598 65.7366C0.948661 63.2068 0 60.3423 0 57.1429C0 53.1994 1.39509 49.8326 4.18527 47.0424C6.97545 44.2522 10.3423 42.8571 14.2857 42.8571C17.1875 42.8571 19.5685 43.4896 21.4286 44.7545V20.5357C21.4286 16.8527 22.74 13.6998 25.3627 11.077C27.9855 8.45424 31.1384 7.14286 34.8214 7.14286C35.6771 7.14286 36.4583 7.21726 37.1652 7.36607C38.3185 5.09673 39.9647 3.30171 42.1038 1.98103C44.2429 0.660342 46.5774 0 49.1071 0Z" fill="black"/>
</svg>
