<svg width="100" height="100" viewBox="0 0 100 100" fill="none" xmlns="http://www.w3.org/2000/svg">
<path d="M50 21.4286C48.0283 21.4286 46.3449 22.1262 44.9498 23.5213C43.5547 24.9163 42.8571 26.5998 42.8571 28.5715V35.7143H41.0714V30.5246C41.0714 28.7389 40.4762 27.2229 39.2857 25.9766C38.0952 24.7303 36.6071 24.1072 34.8214 24.1072C33.1101 24.1072 31.6406 24.721 30.4129 25.9487C29.1853 27.1764 28.5714 28.6459 28.5714 30.3572V54.2969L26.7857 52.6228V43.0246C26.7857 41.2389 26.1905 39.7229 25 38.4766C23.8095 37.2303 22.3214 36.6072 20.5357 36.6072C18.8244 36.6072 17.3549 37.221 16.1272 38.4487C14.8995 39.6764 14.2857 41.1459 14.2857 42.8572V55.3572C14.2857 57.1057 14.9368 58.631 16.2388 59.9331L33.5379 76.4509C34.9888 77.9018 35.7143 79.7992 35.7143 82.1429C35.7143 83.1102 36.0677 83.9472 36.7745 84.6541C37.4814 85.3609 38.3184 85.7143 39.2857 85.7143H75C75.9673 85.7143 76.8043 85.3609 77.5112 84.6541C78.218 83.9472 78.5714 83.1102 78.5714 82.1429V80.7478C78.5714 79.2225 78.7574 77.7902 79.1295 76.4509L85.1562 52.1206C85.5283 50.7813 85.7143 49.349 85.7143 47.8237V34.096C85.7143 32.3103 85.119 30.7943 83.9286 29.548C82.7381 28.3018 81.25 27.6786 79.4643 27.6786C77.753 27.6786 76.2835 28.2925 75.0558 29.5201C73.8281 30.7478 73.2143 32.2173 73.2143 33.9286V35.7143H71.4286V28.7389C71.4286 27.2508 70.9635 25.9022 70.0335 24.6931C69.1034 23.4841 67.9129 22.7307 66.462 22.4331C65.9412 22.3587 65.5134 22.3215 65.1786 22.3215C63.4673 22.3215 61.9978 22.9353 60.7701 24.163C59.5424 25.3907 58.9286 26.8602 58.9286 28.5715V35.7143H57.1429V28.9063C57.1429 27.009 56.5383 25.3442 55.3292 23.9119C54.1202 22.4796 52.5856 21.6704 50.7254 21.4844C50.5394 21.4472 50.2976 21.4286 50 21.4286ZM50 14.2858C53.125 14.2858 55.8966 15.2158 58.3147 17.0759C60.4353 15.8111 62.7232 15.1786 65.1786 15.1786C67.3735 15.1786 69.4382 15.6809 71.3728 16.6853C73.3073 17.6898 74.907 19.1035 76.1719 20.9264C77.1763 20.666 78.2738 20.5358 79.4643 20.5358C83.1845 20.5358 86.3467 21.8658 88.9509 24.5257C91.5551 27.1857 92.8571 30.3758 92.8571 34.096V47.8237C92.8571 49.721 92.6153 51.73 92.1317 53.8505L86.0491 78.1809C85.8259 79.0737 85.7143 80.3944 85.7143 82.1429C85.7143 85.1191 84.6726 87.6489 82.5893 89.7322C80.5059 91.8155 77.9762 92.8572 75 92.8572H39.2857C36.1607 92.8572 33.5937 91.769 31.5848 89.5927C29.5759 87.4163 28.5714 84.7657 28.5714 81.6407L11.3839 65.1228C8.55654 62.407 7.14285 59.1518 7.14285 55.3572V42.8572C7.14285 39.1742 8.45424 36.0213 11.077 33.3985C13.6998 30.7757 16.8527 29.4643 20.5357 29.4643C20.9449 29.4643 21.2426 29.4829 21.4286 29.5201C21.6518 25.9859 23.0562 23.0097 25.6417 20.5916C28.2273 18.1734 31.2872 16.9643 34.8214 16.9643C36.7559 16.9643 38.5789 17.355 40.2902 18.1362C42.9687 15.5692 46.2054 14.2858 50 14.2858Z" fill="black"/>
</svg>
