<svg width="100" height="86" viewBox="0 0 100 86" fill="none" xmlns="http://www.w3.org/2000/svg">
<path d="M59.8772 85.8571H50C43.936 85.8571 39.7321 83.2343 37.3884 77.9888C36.5327 76.1659 36.1049 74.2686 36.1049 72.2968V72.0178C33.7984 70.9017 31.9661 69.2555 30.6083 67.0792C29.2504 64.9029 28.5714 62.5312 28.5714 59.9642C28.5714 58.5506 28.6644 57.6577 28.8504 57.2857H14.2857C10.3423 57.2857 6.97545 55.8906 4.18527 53.1004C1.39509 50.3102 0 46.9434 0 43C0 39.0565 1.39509 35.6897 4.18527 32.8995C6.97545 30.1093 10.3423 28.7143 14.2857 28.7143H20.5915L18.1362 27.7656C15.3832 26.7239 13.1603 24.9847 11.4676 22.548C9.77493 20.1112 8.92857 17.4047 8.92857 14.4285C8.92857 10.4851 10.3237 7.11827 13.1138 4.32809C15.904 1.53791 19.2708 0.142822 23.2143 0.142822C24.9256 0.142822 26.6183 0.459043 28.2924 1.09148L63.3371 14.4285H85.7143C89.6577 14.4285 93.0246 15.8236 95.8147 18.6138C98.6049 21.404 100 24.7708 100 28.7143V65.991C100 69.2648 98.9955 72.1945 96.9866 74.7801C94.9777 77.3657 92.3735 79.0491 89.1741 79.8303L70.2567 84.5736C66.8341 85.4293 63.3743 85.8571 59.8772 85.8571ZM57.1429 46.1808L48.4933 50.1428L39.3973 54.2723C38.2812 54.7931 37.3884 55.5651 36.7188 56.5881C36.0491 57.6112 35.7143 58.7366 35.7143 59.9642C35.7143 61.6756 36.3281 63.1451 37.5558 64.3727C38.7835 65.6004 40.253 66.2142 41.9643 66.2142C42.9315 66.2142 43.7872 66.0282 44.5312 65.6562L63.3929 57.0625C61.5699 56.6904 60.0725 55.7604 58.9007 54.2723C57.7288 52.7842 57.1429 51.1101 57.1429 49.25V46.1808ZM75 63.5357C75 61.8244 74.3862 60.3549 73.1585 59.1272C71.9308 57.8995 70.4613 57.2857 68.75 57.2857C67.7827 57.2857 66.9271 57.4717 66.183 57.8437L50 65.2098C48.9583 65.6934 48.2701 66.0096 47.9353 66.1584C47.6004 66.3073 47.0331 66.6235 46.2333 67.1071C45.4334 67.5907 44.8847 68.0279 44.5871 68.4185C44.2894 68.8091 43.9918 69.3485 43.6942 70.0368C43.3966 70.725 43.2478 71.4784 43.2478 72.2968C43.2478 74.157 43.8337 75.6823 45.0056 76.8727C46.1775 78.0632 47.6935 78.6584 49.5536 78.6584C50.2976 78.6584 51.0045 78.491 51.6741 78.1562L71.317 69.2276C72.433 68.7068 73.3259 67.9349 73.9955 66.9118C74.6652 65.8887 75 64.7634 75 63.5357ZM62.0536 21.5714L25.7812 7.73211C24.8884 7.43449 24.0327 7.28568 23.2143 7.28568C21.2426 7.28568 19.5592 7.98322 18.1641 9.37831C16.769 10.7734 16.0714 12.4568 16.0714 14.4285C16.0714 15.9166 16.49 17.2745 17.327 18.5022C18.1641 19.7299 19.2708 20.6041 20.6473 21.125L50 32.2857V35.8571H14.2857C12.314 35.8571 10.6306 36.5547 9.23549 37.9497C7.8404 39.3448 7.14286 41.0282 7.14286 43C7.14286 44.9717 7.8404 46.6551 9.23549 48.0502C10.6306 49.4453 12.314 50.1428 14.2857 50.1428H44.1406L57.1429 44.2276V33.1785C57.1429 30.8348 57.9985 28.8631 59.7098 27.2634L65.904 21.5714H62.0536ZM59.8772 78.7142C62.9278 78.7142 65.811 78.3608 68.5268 77.654L87.4442 72.9107C89.0439 72.5014 90.346 71.6551 91.3504 70.3716C92.3549 69.0881 92.8571 67.6279 92.8571 65.991V28.7143C92.8571 26.7425 92.1596 25.0591 90.7645 23.664C89.3694 22.2689 87.686 21.5714 85.7143 21.5714H68.5268L60.9375 28.6026C59.5982 29.8303 58.9286 31.3556 58.9286 33.1785V49.6964C58.9286 51.4077 59.5424 52.84 60.7701 53.9933C61.9978 55.1465 63.4673 55.7232 65.1786 55.7232C66.8899 55.7232 68.3594 55.0721 69.5871 53.7701C70.8147 52.468 71.4286 50.9613 71.4286 49.25V37.6428H73.2143V49.25C73.2143 51.8541 72.154 53.9747 70.0335 55.6116C71.968 55.9092 73.577 56.8113 74.8605 58.318C76.144 59.8247 76.7857 61.564 76.7857 63.5357C76.7857 65.0982 76.3579 66.5491 75.5022 67.8884C74.6466 69.2276 73.5119 70.2135 72.0982 70.8459L54.7991 78.7142H59.8772Z" fill="black"/>
</svg>
